<?xml version="1.0" encoding="utf-8"?>
<!-- Generator: Adobe Illustrator 20.1.0, SVG Export Plug-In . SVG Version: 6.00 Build 0)  -->
<svg version="1.1" id="Layer_1" xmlns="http://www.w3.org/2000/svg" xmlns:xlink="http://www.w3.org/1999/xlink" x="0px" y="0px"
	 viewBox="0 0 374.2 103.6" style="enable-background:new 0 0 374.2 103.6;" xml:space="preserve">
<style type="text/css">
	.st0{fill:#FFFFFF;}
</style>
<g>
	<g>
		<g>
			<path class="st0" d="M84.9,38.1c-14.1,0-25.5,10.1-25.5,22.6c0,12.5,11.4,22.6,25.5,22.6c14.1,0,25.5-10.1,25.5-22.6
				C110.5,48.2,99,38.1,84.9,38.1z M84.9,75.5c-9.2,0-16.7-6.6-16.7-14.8c0-8.2,7.5-14.8,16.7-14.8c9.2,0,16.7,6.6,16.7,14.8
				C101.6,68.8,94.1,75.5,84.9,75.5z"/>
			<path class="st0" d="M84.9,38.8c13.8,0,25,9.9,25,22c0,12.1-11.2,22-25,22c-13.8,0-25-9.9-25-22C59.9,48.6,71.1,38.8,84.9,38.8
				 M84.9,76.1c9.5,0,17.3-6.9,17.3-15.3c0-8.4-7.7-15.3-17.3-15.3c-9.5,0-17.3,6.9-17.3,15.3C67.7,69.2,75.4,76.1,84.9,76.1
				 M84.9,38.2c-14.1,0-25.5,10.1-25.5,22.6c0,12.5,11.4,22.6,25.5,22.6c14.1,0,25.5-10.1,25.5-22.6C110.5,48.3,99,38.2,84.9,38.2
				L84.9,38.2z M84.9,75.5c-9.2,0-16.7-6.6-16.7-14.8c0-8.2,7.5-14.8,16.7-14.8c9.2,0,16.7,6.6,16.7,14.8
				C101.6,68.9,94.1,75.5,84.9,75.5L84.9,75.5z"/>
		</g>
		<g>
			<path class="st0" d="M45.5,75.5c-9.2,0-16.7-6.6-16.7-14.8c0-8.2,7.5-14.8,16.7-14.8c0.2,0,0.4,0,0.7,0c-0.4-1.8-0.7-3.8-0.7-5.7
				c0-0.7,0-1.4,0.1-2.1c0,0,0,0-0.1,0C31.4,38.1,20,48.2,20,60.7c0,12.5,11.4,22.6,25.5,22.6c6,0,11.6-1.8,15.9-4.9
				c-1.9-2-3.5-4.3-4.7-6.7C53.8,74,49.9,75.5,45.5,75.5z"/>
			<path class="st0" d="M45,38.7c0,0.5,0,1,0,1.5c0,1.7,0.2,3.4,0.5,5.1c-9.5,0-17.2,6.9-17.2,15.3C28.3,69.1,36,76,45.5,76
				c4.1,0,7.9-1.3,11-3.5c1.1,2.1,2.4,4,4,5.8c-4.4,2.9-9.6,4.5-15.1,4.5c-13.8,0-25-9.9-25-22C20.5,48.7,31.5,38.9,45,38.7
				 M45.5,38.1C31.4,38.1,20,48.2,20,60.7c0,12.5,11.4,22.6,25.5,22.6c6,0,11.6-1.8,15.9-4.9c-1.9-2-3.5-4.3-4.7-6.7
				c-3,2.4-6.9,3.8-11.2,3.8c-9.2,0-16.7-6.6-16.7-14.8c0-8.2,7.5-14.8,16.7-14.8c0.2,0,0.4,0,0.7,0c-0.4-1.8-0.7-3.8-0.7-5.7
				C45.5,39.5,45.5,38.8,45.5,38.1C45.6,38.1,45.5,38.1,45.5,38.1L45.5,38.1z"/>
		</g>
		<g>
			<path class="st0" d="M55.2,55.9C57.1,44,68.4,34.6,82.3,34.2c4.3-0.1,8.4,0.6,12.1,2c-2.4-9.5-12.2-16.4-23.6-16.1
				c-12.9,0.4-23.1,10-22.7,21.4C48.2,47.2,50.9,52.3,55.2,55.9z"/>
			<path class="st0" d="M71.5,20.7c10.2,0,19.2,6.1,21.9,14.6c-3.3-1.1-6.7-1.7-10.3-1.7c-0.3,0-0.6,0-1,0
				c-13.6,0.4-25,9.2-27.4,21.1c-3.9-3.6-6.1-8.3-6.3-13.2c-0.2-4.9,1.7-9.7,5.3-13.5c4.2-4.5,10.4-7.1,16.9-7.3
				C71,20.7,71.3,20.7,71.5,20.7 M71.5,20.2c-0.3,0-0.5,0-0.8,0c-12.9,0.4-23.1,10-22.7,21.4c0.2,5.6,2.9,10.7,7.2,14.3
				C57.1,44,68.4,34.6,82.3,34.2c0.3,0,0.6,0,0.9,0c3.9,0,7.7,0.7,11.1,2C92,27,82.6,20.2,71.5,20.2L71.5,20.2z"/>
		</g>
	</g>
	<g>
		<g>
			<path class="st0" d="M162.8,36.6l-5.7,3.1c-1.1-1.1-2.1-1.9-3.2-2.3c-1-0.4-2.3-0.6-3.7-0.6c-2.5,0-4.6,0.8-6.2,2.3
				c-1.6,1.5-2.4,3.5-2.4,5.8c0,2.3,0.8,4.2,2.3,5.6c1.5,1.5,3.5,2.2,6,2.2c3,0,5.4-1,7.1-3.1l5.4,3.7c-2.9,3.8-7,5.7-12.3,5.7
				c-4.8,0-8.5-1.4-11.2-4.2c-2.7-2.8-4-6.1-4-9.9c0-2.6,0.7-5,2-7.2c1.3-2.2,3.1-3.9,5.5-5.2c2.3-1.3,5-1.9,7.9-1.9
				c2.7,0,5.1,0.5,7.2,1.6C159.7,33.1,161.5,34.6,162.8,36.6z"/>
			<path class="st0" d="M166.2,20.7h6.8v37.6h-6.8V20.7z"/>
			<path class="st0" d="M189.8,30.4c2.6,0,5,0.6,7.2,1.9c2.2,1.3,4,3,5.3,5.2c1.3,2.2,1.9,4.6,1.9,7.1c0,2.6-0.6,4.9-1.9,7.2
				c-1.3,2.2-3,4-5.2,5.2c-2.2,1.3-4.6,1.9-7.2,1.9c-3.9,0-7.2-1.4-9.9-4.1c-2.7-2.8-4.1-6.1-4.1-10.1c0-4.2,1.6-7.8,4.7-10.6
				C183.2,31.7,186.3,30.4,189.8,30.4z M189.9,36.8c-2.1,0-3.9,0.7-5.3,2.2c-1.4,1.5-2.1,3.3-2.1,5.6c0,2.4,0.7,4.3,2.1,5.7
				c1.4,1.5,3.1,2.2,5.3,2.2c2.1,0,3.9-0.7,5.3-2.2c1.4-1.5,2.1-3.4,2.1-5.7c0-2.3-0.7-4.2-2.1-5.7
				C193.9,37.6,192.1,36.8,189.9,36.8z"/>
			<path class="st0" d="M207.7,31.1h6.9v13c0,2.5,0.2,4.3,0.5,5.3c0.3,1,0.9,1.8,1.7,2.3c0.8,0.5,1.7,0.8,2.9,0.8s2.1-0.3,2.9-0.8
				c0.8-0.5,1.4-1.3,1.8-2.4c0.3-0.8,0.4-2.4,0.4-5V31.1h6.8v11.5c0,4.7-0.4,8-1.1,9.7c-0.9,2.1-2.3,3.8-4,4.9
				c-1.8,1.1-4,1.7-6.8,1.7c-3,0-5.4-0.7-7.2-2c-1.8-1.3-3.1-3.2-3.9-5.6c-0.5-1.6-0.8-4.6-0.8-9V31.1z"/>
			<path class="st0" d="M256.3,20.7h6.8v37.6h-6.8v-2.9c-1.3,1.3-2.7,2.2-4,2.7c-1.3,0.6-2.8,0.8-4.3,0.8c-3.5,0-6.5-1.4-9.1-4.1
				c-2.6-2.7-3.8-6.1-3.8-10.1c0-4.2,1.2-7.6,3.7-10.3c2.5-2.7,5.5-4,9-4c1.6,0,3.1,0.3,4.6,0.9c1.4,0.6,2.7,1.5,4,2.8V20.7z
				 M249.1,36.7c-2.1,0-3.8,0.7-5.2,2.2c-1.4,1.5-2.1,3.4-2.1,5.7c0,2.3,0.7,4.3,2.1,5.8c1.4,1.5,3.2,2.3,5.2,2.3
				c2.1,0,3.9-0.7,5.3-2.2c1.4-1.5,2.1-3.4,2.1-5.8c0-2.4-0.7-4.3-2.1-5.7C253.1,37.4,251.3,36.7,249.1,36.7z"/>
			<path class="st0" d="M280.6,30.4c2.6,0,5,0.6,7.2,1.9c2.2,1.3,4,3,5.3,5.2c1.3,2.2,1.9,4.6,1.9,7.1c0,2.6-0.6,4.9-1.9,7.2
				c-1.3,2.2-3,4-5.2,5.2c-2.2,1.3-4.6,1.9-7.2,1.9c-3.9,0-7.2-1.4-9.9-4.1c-2.7-2.8-4.1-6.1-4.1-10.1c0-4.2,1.6-7.8,4.7-10.6
				C274,31.7,277.1,30.4,280.6,30.4z M280.7,36.8c-2.1,0-3.9,0.7-5.3,2.2c-1.4,1.5-2.1,3.3-2.1,5.6c0,2.4,0.7,4.3,2.1,5.7
				c1.4,1.5,3.1,2.2,5.3,2.2c2.1,0,3.9-0.7,5.3-2.2c1.4-1.5,2.1-3.4,2.1-5.7c0-2.3-0.7-4.2-2.1-5.7
				C284.7,37.6,282.9,36.8,280.7,36.8z"/>
			<path class="st0" d="M298.5,31.1h6.8v2.8c1.5-1.3,2.9-2.2,4.2-2.7c1.3-0.5,2.5-0.8,3.8-0.8c2.7,0,5,0.9,6.8,2.8
				c1.6,1.6,2.4,4,2.4,7.1v17.9h-6.7V46.4c0-3.2-0.1-5.4-0.4-6.4c-0.3-1.1-0.8-1.9-1.5-2.4c-0.7-0.6-1.6-0.8-2.7-0.8
				c-1.4,0-2.6,0.5-3.5,1.4c-1,0.9-1.7,2.2-2,3.8c-0.2,0.8-0.3,2.7-0.3,5.5v10.9h-6.8V31.1z"/>
			<path class="st0" d="M354.2,46.7h-21.8c0.3,1.9,1.2,3.5,2.5,4.6c1.4,1.1,3.1,1.7,5.2,1.7c2.5,0,4.7-0.9,6.5-2.7l5.7,2.7
				c-1.4,2-3.1,3.5-5.1,4.5c-2,1-4.4,1.5-7.1,1.5c-4.2,0-7.7-1.3-10.4-4c-2.7-2.7-4-6-4-10.1c0-4.1,1.3-7.6,4-10.3
				c2.7-2.7,6-4.1,10-4.1c4.3,0,7.7,1.4,10.4,4.1c2.7,2.7,4,6.3,4,10.8L354.2,46.7z M347.4,41.3c-0.4-1.5-1.3-2.7-2.7-3.7
				c-1.3-0.9-2.9-1.4-4.6-1.4c-1.9,0-3.6,0.5-5,1.6c-0.9,0.7-1.7,1.8-2.5,3.5H347.4z"/>
		</g>
		<g>
			<path class="st0" d="M295.1,79.6c0.5,0,1,0.2,1.3,0.5c0.4,0.4,0.5,0.8,0.5,1.3c0,0.5-0.2,1-0.5,1.3c-0.4,0.4-0.8,0.5-1.3,0.5
				c-0.5,0-1-0.2-1.3-0.5c-0.4-0.4-0.5-0.8-0.5-1.3c0-0.5,0.2-1,0.5-1.3C294.1,79.8,294.5,79.6,295.1,79.6z"/>
			<path class="st0" d="M299.1,70.1h3.3v1.5c0.6-0.6,1.2-1.1,1.9-1.4c0.7-0.3,1.4-0.5,2.2-0.5c0.8,0,1.5,0.2,2.2,0.6
				c0.7,0.4,1.2,1,1.6,1.7c0.5-0.8,1.2-1.3,1.9-1.7c0.8-0.4,1.6-0.6,2.5-0.6c0.9,0,1.7,0.2,2.4,0.6c0.7,0.4,1.2,1,1.5,1.7
				c0.3,0.7,0.5,1.8,0.5,3.4V83h-3.3v-6.6c0-1.5-0.2-2.5-0.5-3c-0.4-0.5-0.9-0.8-1.6-0.8c-0.6,0-1.1,0.2-1.5,0.5
				c-0.4,0.3-0.8,0.8-1,1.3c-0.2,0.6-0.3,1.5-0.3,2.7V83h-3.3v-6.3c0-1.2-0.1-2-0.3-2.5c-0.2-0.5-0.4-0.9-0.8-1.2
				c-0.3-0.3-0.8-0.4-1.2-0.4c-0.5,0-1,0.2-1.5,0.5c-0.4,0.3-0.8,0.8-1,1.4c-0.2,0.6-0.3,1.5-0.3,2.7V83h-3.3V70.1z"/>
			<path class="st0" d="M327.2,69.7c1.2,0,2.4,0.3,3.5,0.9c1.1,0.6,1.9,1.4,2.5,2.5c0.6,1,0.9,2.2,0.9,3.4c0,1.2-0.3,2.4-0.9,3.4
				c-0.6,1.1-1.4,1.9-2.5,2.5c-1,0.6-2.2,0.9-3.5,0.9c-1.9,0-3.4-0.7-4.8-2c-1.3-1.3-2-2.9-2-4.8c0-2,0.7-3.7,2.2-5.1
				C324,70.3,325.5,69.7,327.2,69.7z M327.2,72.8c-1,0-1.9,0.4-2.5,1.1c-0.7,0.7-1,1.6-1,2.7c0,1.1,0.3,2,1,2.7c0.7,0.7,1.5,1,2.5,1
				c1,0,1.9-0.4,2.5-1.1c0.7-0.7,1-1.6,1-2.7c0-1.1-0.3-2-1-2.7C329.1,73.1,328.3,72.8,327.2,72.8z"/>
			<path class="st0" d="M339,65v6.4c0.6-0.6,1.2-1,1.9-1.3c0.7-0.3,1.4-0.4,2.2-0.4c1.7,0,3.1,0.6,4.3,1.9c1.2,1.3,1.8,2.9,1.8,4.9
				c0,1.9-0.6,3.5-1.8,4.8c-1.2,1.3-2.7,1.9-4.4,1.9c-0.7,0-1.4-0.1-2.1-0.4c-0.6-0.3-1.3-0.7-1.9-1.3V83h-3.2V65H339z M342.4,72.7
				c-1,0-1.9,0.3-2.6,1c-0.7,0.7-1,1.6-1,2.7c0,1.2,0.3,2.1,1,2.8c0.7,0.7,1.5,1.1,2.6,1.1c1,0,1.8-0.4,2.5-1.1c0.7-0.7,1-1.6,1-2.8
				c0-1.1-0.3-2-1-2.7C344.3,73.1,343.4,72.7,342.4,72.7z"/>
			<path class="st0" d="M352.2,64.7c0.6,0,1.1,0.2,1.5,0.6c0.4,0.4,0.6,0.9,0.6,1.5c0,0.6-0.2,1.1-0.6,1.5c-0.4,0.4-0.9,0.6-1.5,0.6
				c-0.6,0-1.1-0.2-1.5-0.6c-0.4-0.4-0.6-0.9-0.6-1.5c0-0.6,0.2-1.1,0.6-1.5C351.1,64.9,351.6,64.7,352.2,64.7z M350.5,70.1h3.3v13
				h-3.3V70.1z"/>
		</g>
	</g>
</g>
<g>
</g>
<g>
</g>
<g>
</g>
<g>
</g>
<g>
</g>
<g>
</g>
<g>
</g>
<g>
</g>
<g>
</g>
<g>
</g>
<g>
</g>
<g>
</g>
<g>
</g>
<g>
</g>
<g>
</g>
</svg>
